<mxfile host="app.diagrams.net" modified="2023-05-20T02:42:30.980Z" agent="Mozilla/5.0 (Windows NT 10.0; Win64; x64) AppleWebKit/537.36 (KHTML, like Gecko) Chrome/113.0.0.0 Safari/537.36" etag="_W3VRh63Svj_5IyvKXNE" version="21.2.9" type="device">
  <diagram name="Page-1" id="VhK8t71fMktd_n8_Tot6">
    <mxGraphModel dx="1644" dy="430" grid="1" gridSize="10" guides="1" tooltips="1" connect="1" arrows="1" fold="1" page="1" pageScale="1" pageWidth="850" pageHeight="1100" math="0" shadow="0">
      <root>
        <mxCell id="0" />
        <mxCell id="1" parent="0" />
        <mxCell id="5eGrc-85FcCoErq699yo-1" value="Product" style="swimlane;fontStyle=0;childLayout=stackLayout;horizontal=1;startSize=26;fillColor=none;horizontalStack=0;resizeParent=1;resizeParentMax=0;resizeLast=0;collapsible=1;marginBottom=0;whiteSpace=wrap;html=1;" parent="1" vertex="1">
          <mxGeometry x="300" y="40" width="140" height="214" as="geometry" />
        </mxCell>
        <mxCell id="5eGrc-85FcCoErq699yo-2" value="+ Id: int&amp;nbsp;" style="text;strokeColor=none;fillColor=none;align=left;verticalAlign=top;spacingLeft=4;spacingRight=4;overflow=hidden;rotatable=0;points=[[0,0.5],[1,0.5]];portConstraint=eastwest;whiteSpace=wrap;html=1;" parent="5eGrc-85FcCoErq699yo-1" vertex="1">
          <mxGeometry y="26" width="140" height="26" as="geometry" />
        </mxCell>
        <mxCell id="wjSqzZgR6BkllyGaZuzp-9" value="+ CategoryID: int&amp;nbsp;" style="text;strokeColor=none;fillColor=none;align=left;verticalAlign=top;spacingLeft=4;spacingRight=4;overflow=hidden;rotatable=0;points=[[0,0.5],[1,0.5]];portConstraint=eastwest;whiteSpace=wrap;html=1;" vertex="1" parent="5eGrc-85FcCoErq699yo-1">
          <mxGeometry y="52" width="140" height="26" as="geometry" />
        </mxCell>
        <mxCell id="5eGrc-85FcCoErq699yo-3" value="+ Name: string" style="text;strokeColor=none;fillColor=none;align=left;verticalAlign=top;spacingLeft=4;spacingRight=4;overflow=hidden;rotatable=0;points=[[0,0.5],[1,0.5]];portConstraint=eastwest;whiteSpace=wrap;html=1;" parent="5eGrc-85FcCoErq699yo-1" vertex="1">
          <mxGeometry y="78" width="140" height="26" as="geometry" />
        </mxCell>
        <mxCell id="5eGrc-85FcCoErq699yo-4" value="+ Code: string" style="text;strokeColor=none;fillColor=none;align=left;verticalAlign=top;spacingLeft=4;spacingRight=4;overflow=hidden;rotatable=0;points=[[0,0.5],[1,0.5]];portConstraint=eastwest;whiteSpace=wrap;html=1;" parent="5eGrc-85FcCoErq699yo-1" vertex="1">
          <mxGeometry y="104" width="140" height="22" as="geometry" />
        </mxCell>
        <mxCell id="5eGrc-85FcCoErq699yo-10" value="+ Description: string" style="text;strokeColor=none;fillColor=none;align=left;verticalAlign=top;spacingLeft=4;spacingRight=4;overflow=hidden;rotatable=0;points=[[0,0.5],[1,0.5]];portConstraint=eastwest;whiteSpace=wrap;html=1;" parent="5eGrc-85FcCoErq699yo-1" vertex="1">
          <mxGeometry y="126" width="140" height="22" as="geometry" />
        </mxCell>
        <mxCell id="5eGrc-85FcCoErq699yo-19" value="+ quantity: int" style="text;strokeColor=none;fillColor=none;align=left;verticalAlign=top;spacingLeft=4;spacingRight=4;overflow=hidden;rotatable=0;points=[[0,0.5],[1,0.5]];portConstraint=eastwest;whiteSpace=wrap;html=1;" parent="5eGrc-85FcCoErq699yo-1" vertex="1">
          <mxGeometry y="148" width="140" height="22" as="geometry" />
        </mxCell>
        <mxCell id="5eGrc-85FcCoErq699yo-125" value="+ StatusID: int" style="text;strokeColor=none;fillColor=none;align=left;verticalAlign=top;spacingLeft=4;spacingRight=4;overflow=hidden;rotatable=0;points=[[0,0.5],[1,0.5]];portConstraint=eastwest;whiteSpace=wrap;html=1;" parent="5eGrc-85FcCoErq699yo-1" vertex="1">
          <mxGeometry y="170" width="140" height="22" as="geometry" />
        </mxCell>
        <mxCell id="wjSqzZgR6BkllyGaZuzp-3" value="+ TenantID: int" style="text;strokeColor=none;fillColor=none;align=left;verticalAlign=top;spacingLeft=4;spacingRight=4;overflow=hidden;rotatable=0;points=[[0,0.5],[1,0.5]];portConstraint=eastwest;whiteSpace=wrap;html=1;" vertex="1" parent="5eGrc-85FcCoErq699yo-1">
          <mxGeometry y="192" width="140" height="22" as="geometry" />
        </mxCell>
        <mxCell id="5eGrc-85FcCoErq699yo-12" value="CategoryProduct" style="swimlane;fontStyle=0;childLayout=stackLayout;horizontal=1;startSize=26;fillColor=none;horizontalStack=0;resizeParent=1;resizeParentMax=0;resizeLast=0;collapsible=1;marginBottom=0;whiteSpace=wrap;html=1;" parent="1" vertex="1">
          <mxGeometry x="680" y="40" width="140" height="140" as="geometry" />
        </mxCell>
        <mxCell id="5eGrc-85FcCoErq699yo-13" value="+ Id: int&amp;nbsp;" style="text;strokeColor=none;fillColor=none;align=left;verticalAlign=top;spacingLeft=4;spacingRight=4;overflow=hidden;rotatable=0;points=[[0,0.5],[1,0.5]];portConstraint=eastwest;whiteSpace=wrap;html=1;" parent="5eGrc-85FcCoErq699yo-12" vertex="1">
          <mxGeometry y="26" width="140" height="26" as="geometry" />
        </mxCell>
        <mxCell id="wjSqzZgR6BkllyGaZuzp-8" value="+ Parent: int" style="text;strokeColor=none;fillColor=none;align=left;verticalAlign=top;spacingLeft=4;spacingRight=4;overflow=hidden;rotatable=0;points=[[0,0.5],[1,0.5]];portConstraint=eastwest;whiteSpace=wrap;html=1;" vertex="1" parent="5eGrc-85FcCoErq699yo-12">
          <mxGeometry y="52" width="140" height="22" as="geometry" />
        </mxCell>
        <mxCell id="5eGrc-85FcCoErq699yo-15" value="+ Name: string" style="text;strokeColor=none;fillColor=none;align=left;verticalAlign=top;spacingLeft=4;spacingRight=4;overflow=hidden;rotatable=0;points=[[0,0.5],[1,0.5]];portConstraint=eastwest;whiteSpace=wrap;html=1;" parent="5eGrc-85FcCoErq699yo-12" vertex="1">
          <mxGeometry y="74" width="140" height="22" as="geometry" />
        </mxCell>
        <mxCell id="wjSqzZgR6BkllyGaZuzp-11" value="+ TenantID: int" style="text;strokeColor=none;fillColor=none;align=left;verticalAlign=top;spacingLeft=4;spacingRight=4;overflow=hidden;rotatable=0;points=[[0,0.5],[1,0.5]];portConstraint=eastwest;whiteSpace=wrap;html=1;" vertex="1" parent="5eGrc-85FcCoErq699yo-12">
          <mxGeometry y="96" width="140" height="22" as="geometry" />
        </mxCell>
        <mxCell id="wjSqzZgR6BkllyGaZuzp-10" value="+ Description: string" style="text;strokeColor=none;fillColor=none;align=left;verticalAlign=top;spacingLeft=4;spacingRight=4;overflow=hidden;rotatable=0;points=[[0,0.5],[1,0.5]];portConstraint=eastwest;whiteSpace=wrap;html=1;" vertex="1" parent="5eGrc-85FcCoErq699yo-12">
          <mxGeometry y="118" width="140" height="22" as="geometry" />
        </mxCell>
        <mxCell id="5eGrc-85FcCoErq699yo-25" value="Customer" style="swimlane;fontStyle=0;childLayout=stackLayout;horizontal=1;startSize=26;fillColor=none;horizontalStack=0;resizeParent=1;resizeParentMax=0;resizeLast=0;collapsible=1;marginBottom=0;whiteSpace=wrap;html=1;" parent="1" vertex="1">
          <mxGeometry x="-50" y="620" width="140" height="188" as="geometry" />
        </mxCell>
        <mxCell id="5eGrc-85FcCoErq699yo-26" value="+ Id: int&amp;nbsp;" style="text;strokeColor=none;fillColor=none;align=left;verticalAlign=top;spacingLeft=4;spacingRight=4;overflow=hidden;rotatable=0;points=[[0,0.5],[1,0.5]];portConstraint=eastwest;whiteSpace=wrap;html=1;" parent="5eGrc-85FcCoErq699yo-25" vertex="1">
          <mxGeometry y="26" width="140" height="26" as="geometry" />
        </mxCell>
        <mxCell id="5eGrc-85FcCoErq699yo-27" value="+ FirstName: string" style="text;strokeColor=none;fillColor=none;align=left;verticalAlign=top;spacingLeft=4;spacingRight=4;overflow=hidden;rotatable=0;points=[[0,0.5],[1,0.5]];portConstraint=eastwest;whiteSpace=wrap;html=1;" parent="5eGrc-85FcCoErq699yo-25" vertex="1">
          <mxGeometry y="52" width="140" height="26" as="geometry" />
        </mxCell>
        <mxCell id="5eGrc-85FcCoErq699yo-28" value="+ LastName: string" style="text;strokeColor=none;fillColor=none;align=left;verticalAlign=top;spacingLeft=4;spacingRight=4;overflow=hidden;rotatable=0;points=[[0,0.5],[1,0.5]];portConstraint=eastwest;whiteSpace=wrap;html=1;" parent="5eGrc-85FcCoErq699yo-25" vertex="1">
          <mxGeometry y="78" width="140" height="22" as="geometry" />
        </mxCell>
        <mxCell id="5eGrc-85FcCoErq699yo-29" value="+ Email: string" style="text;strokeColor=none;fillColor=none;align=left;verticalAlign=top;spacingLeft=4;spacingRight=4;overflow=hidden;rotatable=0;points=[[0,0.5],[1,0.5]];portConstraint=eastwest;whiteSpace=wrap;html=1;" parent="5eGrc-85FcCoErq699yo-25" vertex="1">
          <mxGeometry y="100" width="140" height="22" as="geometry" />
        </mxCell>
        <mxCell id="5eGrc-85FcCoErq699yo-30" value="+ PhoneNumber: string" style="text;strokeColor=none;fillColor=none;align=left;verticalAlign=top;spacingLeft=4;spacingRight=4;overflow=hidden;rotatable=0;points=[[0,0.5],[1,0.5]];portConstraint=eastwest;whiteSpace=wrap;html=1;" parent="5eGrc-85FcCoErq699yo-25" vertex="1">
          <mxGeometry y="122" width="140" height="22" as="geometry" />
        </mxCell>
        <mxCell id="5eGrc-85FcCoErq699yo-31" value="+ Description: string" style="text;strokeColor=none;fillColor=none;align=left;verticalAlign=top;spacingLeft=4;spacingRight=4;overflow=hidden;rotatable=0;points=[[0,0.5],[1,0.5]];portConstraint=eastwest;whiteSpace=wrap;html=1;" parent="5eGrc-85FcCoErq699yo-25" vertex="1">
          <mxGeometry y="144" width="140" height="22" as="geometry" />
        </mxCell>
        <mxCell id="5eGrc-85FcCoErq699yo-32" value="+ isVIP: bool" style="text;strokeColor=none;fillColor=none;align=left;verticalAlign=top;spacingLeft=4;spacingRight=4;overflow=hidden;rotatable=0;points=[[0,0.5],[1,0.5]];portConstraint=eastwest;whiteSpace=wrap;html=1;" parent="5eGrc-85FcCoErq699yo-25" vertex="1">
          <mxGeometry y="166" width="140" height="22" as="geometry" />
        </mxCell>
        <mxCell id="5eGrc-85FcCoErq699yo-42" value="Cart" style="swimlane;fontStyle=0;childLayout=stackLayout;horizontal=1;startSize=26;fillColor=none;horizontalStack=0;resizeParent=1;resizeParentMax=0;resizeLast=0;collapsible=1;marginBottom=0;whiteSpace=wrap;html=1;" parent="1" vertex="1">
          <mxGeometry x="200" y="620" width="140" height="188" as="geometry" />
        </mxCell>
        <mxCell id="5eGrc-85FcCoErq699yo-43" value="+ Id: int&amp;nbsp;" style="text;strokeColor=none;fillColor=none;align=left;verticalAlign=top;spacingLeft=4;spacingRight=4;overflow=hidden;rotatable=0;points=[[0,0.5],[1,0.5]];portConstraint=eastwest;whiteSpace=wrap;html=1;" parent="5eGrc-85FcCoErq699yo-42" vertex="1">
          <mxGeometry y="26" width="140" height="26" as="geometry" />
        </mxCell>
        <mxCell id="5eGrc-85FcCoErq699yo-44" value="+ Code: string" style="text;strokeColor=none;fillColor=none;align=left;verticalAlign=top;spacingLeft=4;spacingRight=4;overflow=hidden;rotatable=0;points=[[0,0.5],[1,0.5]];portConstraint=eastwest;whiteSpace=wrap;html=1;" parent="5eGrc-85FcCoErq699yo-42" vertex="1">
          <mxGeometry y="52" width="140" height="26" as="geometry" />
        </mxCell>
        <mxCell id="5eGrc-85FcCoErq699yo-45" value="+ ProductID: int" style="text;strokeColor=none;fillColor=none;align=left;verticalAlign=top;spacingLeft=4;spacingRight=4;overflow=hidden;rotatable=0;points=[[0,0.5],[1,0.5]];portConstraint=eastwest;whiteSpace=wrap;html=1;" parent="5eGrc-85FcCoErq699yo-42" vertex="1">
          <mxGeometry y="78" width="140" height="22" as="geometry" />
        </mxCell>
        <mxCell id="5eGrc-85FcCoErq699yo-46" value="+ CustomerID: int" style="text;strokeColor=none;fillColor=none;align=left;verticalAlign=top;spacingLeft=4;spacingRight=4;overflow=hidden;rotatable=0;points=[[0,0.5],[1,0.5]];portConstraint=eastwest;whiteSpace=wrap;html=1;" parent="5eGrc-85FcCoErq699yo-42" vertex="1">
          <mxGeometry y="100" width="140" height="22" as="geometry" />
        </mxCell>
        <mxCell id="5eGrc-85FcCoErq699yo-47" value="+ CreateDate: datetime" style="text;strokeColor=none;fillColor=none;align=left;verticalAlign=top;spacingLeft=4;spacingRight=4;overflow=hidden;rotatable=0;points=[[0,0.5],[1,0.5]];portConstraint=eastwest;whiteSpace=wrap;html=1;" parent="5eGrc-85FcCoErq699yo-42" vertex="1">
          <mxGeometry y="122" width="140" height="22" as="geometry" />
        </mxCell>
        <mxCell id="5eGrc-85FcCoErq699yo-48" value="+ Quantity: int" style="text;strokeColor=none;fillColor=none;align=left;verticalAlign=top;spacingLeft=4;spacingRight=4;overflow=hidden;rotatable=0;points=[[0,0.5],[1,0.5]];portConstraint=eastwest;whiteSpace=wrap;html=1;" parent="5eGrc-85FcCoErq699yo-42" vertex="1">
          <mxGeometry y="144" width="140" height="22" as="geometry" />
        </mxCell>
        <mxCell id="5eGrc-85FcCoErq699yo-126" value="+ StatusID: int" style="text;strokeColor=none;fillColor=none;align=left;verticalAlign=top;spacingLeft=4;spacingRight=4;overflow=hidden;rotatable=0;points=[[0,0.5],[1,0.5]];portConstraint=eastwest;whiteSpace=wrap;html=1;" parent="5eGrc-85FcCoErq699yo-42" vertex="1">
          <mxGeometry y="166" width="140" height="22" as="geometry" />
        </mxCell>
        <mxCell id="5eGrc-85FcCoErq699yo-50" value="Order" style="swimlane;fontStyle=0;childLayout=stackLayout;horizontal=1;startSize=26;fillColor=none;horizontalStack=0;resizeParent=1;resizeParentMax=0;resizeLast=0;collapsible=1;marginBottom=0;whiteSpace=wrap;html=1;" parent="1" vertex="1">
          <mxGeometry x="425" y="610" width="210" height="254" as="geometry" />
        </mxCell>
        <mxCell id="5eGrc-85FcCoErq699yo-51" value="+ Id: int&amp;nbsp;" style="text;strokeColor=none;fillColor=none;align=left;verticalAlign=top;spacingLeft=4;spacingRight=4;overflow=hidden;rotatable=0;points=[[0,0.5],[1,0.5]];portConstraint=eastwest;whiteSpace=wrap;html=1;" parent="5eGrc-85FcCoErq699yo-50" vertex="1">
          <mxGeometry y="26" width="210" height="26" as="geometry" />
        </mxCell>
        <mxCell id="5eGrc-85FcCoErq699yo-52" value="+ Code: string" style="text;strokeColor=none;fillColor=none;align=left;verticalAlign=top;spacingLeft=4;spacingRight=4;overflow=hidden;rotatable=0;points=[[0,0.5],[1,0.5]];portConstraint=eastwest;whiteSpace=wrap;html=1;" parent="5eGrc-85FcCoErq699yo-50" vertex="1">
          <mxGeometry y="52" width="210" height="26" as="geometry" />
        </mxCell>
        <mxCell id="5eGrc-85FcCoErq699yo-53" value="+ ProductID: int" style="text;strokeColor=none;fillColor=none;align=left;verticalAlign=top;spacingLeft=4;spacingRight=4;overflow=hidden;rotatable=0;points=[[0,0.5],[1,0.5]];portConstraint=eastwest;whiteSpace=wrap;html=1;" parent="5eGrc-85FcCoErq699yo-50" vertex="1">
          <mxGeometry y="78" width="210" height="22" as="geometry" />
        </mxCell>
        <mxCell id="5eGrc-85FcCoErq699yo-54" value="+ quantity: int" style="text;strokeColor=none;fillColor=none;align=left;verticalAlign=top;spacingLeft=4;spacingRight=4;overflow=hidden;rotatable=0;points=[[0,0.5],[1,0.5]];portConstraint=eastwest;whiteSpace=wrap;html=1;" parent="5eGrc-85FcCoErq699yo-50" vertex="1">
          <mxGeometry y="100" width="210" height="22" as="geometry" />
        </mxCell>
        <mxCell id="5eGrc-85FcCoErq699yo-56" value="+ CustomerID: int" style="text;strokeColor=none;fillColor=none;align=left;verticalAlign=top;spacingLeft=4;spacingRight=4;overflow=hidden;rotatable=0;points=[[0,0.5],[1,0.5]];portConstraint=eastwest;whiteSpace=wrap;html=1;" parent="5eGrc-85FcCoErq699yo-50" vertex="1">
          <mxGeometry y="122" width="210" height="22" as="geometry" />
        </mxCell>
        <mxCell id="5eGrc-85FcCoErq699yo-57" value="+ ShippingCustomer: string" style="text;strokeColor=none;fillColor=none;align=left;verticalAlign=top;spacingLeft=4;spacingRight=4;overflow=hidden;rotatable=0;points=[[0,0.5],[1,0.5]];portConstraint=eastwest;whiteSpace=wrap;html=1;" parent="5eGrc-85FcCoErq699yo-50" vertex="1">
          <mxGeometry y="144" width="210" height="22" as="geometry" />
        </mxCell>
        <mxCell id="5eGrc-85FcCoErq699yo-60" value="+ ShippingAddress: string" style="text;strokeColor=none;fillColor=none;align=left;verticalAlign=top;spacingLeft=4;spacingRight=4;overflow=hidden;rotatable=0;points=[[0,0.5],[1,0.5]];portConstraint=eastwest;whiteSpace=wrap;html=1;" parent="5eGrc-85FcCoErq699yo-50" vertex="1">
          <mxGeometry y="166" width="210" height="22" as="geometry" />
        </mxCell>
        <mxCell id="5eGrc-85FcCoErq699yo-58" value="+ ShippingPhoneNumber: string" style="text;strokeColor=none;fillColor=none;align=left;verticalAlign=top;spacingLeft=4;spacingRight=4;overflow=hidden;rotatable=0;points=[[0,0.5],[1,0.5]];portConstraint=eastwest;whiteSpace=wrap;html=1;" parent="5eGrc-85FcCoErq699yo-50" vertex="1">
          <mxGeometry y="188" width="210" height="22" as="geometry" />
        </mxCell>
        <mxCell id="5eGrc-85FcCoErq699yo-59" value="+ Description: string" style="text;strokeColor=none;fillColor=none;align=left;verticalAlign=top;spacingLeft=4;spacingRight=4;overflow=hidden;rotatable=0;points=[[0,0.5],[1,0.5]];portConstraint=eastwest;whiteSpace=wrap;html=1;" parent="5eGrc-85FcCoErq699yo-50" vertex="1">
          <mxGeometry y="210" width="210" height="22" as="geometry" />
        </mxCell>
        <mxCell id="5eGrc-85FcCoErq699yo-124" value="+ StatusID: int" style="text;strokeColor=none;fillColor=none;align=left;verticalAlign=top;spacingLeft=4;spacingRight=4;overflow=hidden;rotatable=0;points=[[0,0.5],[1,0.5]];portConstraint=eastwest;whiteSpace=wrap;html=1;" parent="5eGrc-85FcCoErq699yo-50" vertex="1">
          <mxGeometry y="232" width="210" height="22" as="geometry" />
        </mxCell>
        <mxCell id="5eGrc-85FcCoErq699yo-61" value="User" style="swimlane;fontStyle=0;childLayout=stackLayout;horizontal=1;startSize=26;fillColor=none;horizontalStack=0;resizeParent=1;resizeParentMax=0;resizeLast=0;collapsible=1;marginBottom=0;whiteSpace=wrap;html=1;" parent="1" vertex="1">
          <mxGeometry x="80" y="870" width="140" height="234" as="geometry" />
        </mxCell>
        <mxCell id="5eGrc-85FcCoErq699yo-62" value="+ Id: int" style="text;strokeColor=none;fillColor=none;align=left;verticalAlign=top;spacingLeft=4;spacingRight=4;overflow=hidden;rotatable=0;points=[[0,0.5],[1,0.5]];portConstraint=eastwest;whiteSpace=wrap;html=1;" parent="5eGrc-85FcCoErq699yo-61" vertex="1">
          <mxGeometry y="26" width="140" height="26" as="geometry" />
        </mxCell>
        <mxCell id="5eGrc-85FcCoErq699yo-63" value="+ UserName: string" style="text;strokeColor=none;fillColor=none;align=left;verticalAlign=top;spacingLeft=4;spacingRight=4;overflow=hidden;rotatable=0;points=[[0,0.5],[1,0.5]];portConstraint=eastwest;whiteSpace=wrap;html=1;" parent="5eGrc-85FcCoErq699yo-61" vertex="1">
          <mxGeometry y="52" width="140" height="26" as="geometry" />
        </mxCell>
        <mxCell id="5eGrc-85FcCoErq699yo-64" value="+ PasswordHasd: string" style="text;strokeColor=none;fillColor=none;align=left;verticalAlign=top;spacingLeft=4;spacingRight=4;overflow=hidden;rotatable=0;points=[[0,0.5],[1,0.5]];portConstraint=eastwest;whiteSpace=wrap;html=1;" parent="5eGrc-85FcCoErq699yo-61" vertex="1">
          <mxGeometry y="78" width="140" height="26" as="geometry" />
        </mxCell>
        <mxCell id="wjSqzZgR6BkllyGaZuzp-1" value="+ FullName: string" style="text;strokeColor=none;fillColor=none;align=left;verticalAlign=top;spacingLeft=4;spacingRight=4;overflow=hidden;rotatable=0;points=[[0,0.5],[1,0.5]];portConstraint=eastwest;whiteSpace=wrap;html=1;" vertex="1" parent="5eGrc-85FcCoErq699yo-61">
          <mxGeometry y="104" width="140" height="26" as="geometry" />
        </mxCell>
        <mxCell id="5eGrc-85FcCoErq699yo-68" value="+ Email: string" style="text;strokeColor=none;fillColor=none;align=left;verticalAlign=top;spacingLeft=4;spacingRight=4;overflow=hidden;rotatable=0;points=[[0,0.5],[1,0.5]];portConstraint=eastwest;whiteSpace=wrap;html=1;" parent="5eGrc-85FcCoErq699yo-61" vertex="1">
          <mxGeometry y="130" width="140" height="26" as="geometry" />
        </mxCell>
        <mxCell id="5eGrc-85FcCoErq699yo-69" value="+ PhoneNumber: string" style="text;strokeColor=none;fillColor=none;align=left;verticalAlign=top;spacingLeft=4;spacingRight=4;overflow=hidden;rotatable=0;points=[[0,0.5],[1,0.5]];portConstraint=eastwest;whiteSpace=wrap;html=1;" parent="5eGrc-85FcCoErq699yo-61" vertex="1">
          <mxGeometry y="156" width="140" height="26" as="geometry" />
        </mxCell>
        <mxCell id="5eGrc-85FcCoErq699yo-67" value="+ CreateDate: datetime" style="text;strokeColor=none;fillColor=none;align=left;verticalAlign=top;spacingLeft=4;spacingRight=4;overflow=hidden;rotatable=0;points=[[0,0.5],[1,0.5]];portConstraint=eastwest;whiteSpace=wrap;html=1;" parent="5eGrc-85FcCoErq699yo-61" vertex="1">
          <mxGeometry y="182" width="140" height="26" as="geometry" />
        </mxCell>
        <mxCell id="wjSqzZgR6BkllyGaZuzp-2" value="+ UpdateDate: datetime" style="text;strokeColor=none;fillColor=none;align=left;verticalAlign=top;spacingLeft=4;spacingRight=4;overflow=hidden;rotatable=0;points=[[0,0.5],[1,0.5]];portConstraint=eastwest;whiteSpace=wrap;html=1;" vertex="1" parent="5eGrc-85FcCoErq699yo-61">
          <mxGeometry y="208" width="140" height="26" as="geometry" />
        </mxCell>
        <mxCell id="5eGrc-85FcCoErq699yo-70" value="UserRole" style="swimlane;fontStyle=0;childLayout=stackLayout;horizontal=1;startSize=26;fillColor=none;horizontalStack=0;resizeParent=1;resizeParentMax=0;resizeLast=0;collapsible=1;marginBottom=0;whiteSpace=wrap;html=1;" parent="1" vertex="1">
          <mxGeometry x="380" y="960" width="140" height="104" as="geometry" />
        </mxCell>
        <mxCell id="5eGrc-85FcCoErq699yo-71" value="+ Id: int" style="text;strokeColor=none;fillColor=none;align=left;verticalAlign=top;spacingLeft=4;spacingRight=4;overflow=hidden;rotatable=0;points=[[0,0.5],[1,0.5]];portConstraint=eastwest;whiteSpace=wrap;html=1;" parent="5eGrc-85FcCoErq699yo-70" vertex="1">
          <mxGeometry y="26" width="140" height="26" as="geometry" />
        </mxCell>
        <mxCell id="5eGrc-85FcCoErq699yo-72" value="+ UserID: int" style="text;strokeColor=none;fillColor=none;align=left;verticalAlign=top;spacingLeft=4;spacingRight=4;overflow=hidden;rotatable=0;points=[[0,0.5],[1,0.5]];portConstraint=eastwest;whiteSpace=wrap;html=1;" parent="5eGrc-85FcCoErq699yo-70" vertex="1">
          <mxGeometry y="52" width="140" height="26" as="geometry" />
        </mxCell>
        <mxCell id="5eGrc-85FcCoErq699yo-73" value="+ RoleID: int" style="text;strokeColor=none;fillColor=none;align=left;verticalAlign=top;spacingLeft=4;spacingRight=4;overflow=hidden;rotatable=0;points=[[0,0.5],[1,0.5]];portConstraint=eastwest;whiteSpace=wrap;html=1;" parent="5eGrc-85FcCoErq699yo-70" vertex="1">
          <mxGeometry y="78" width="140" height="26" as="geometry" />
        </mxCell>
        <mxCell id="5eGrc-85FcCoErq699yo-77" value="Role" style="swimlane;fontStyle=0;childLayout=stackLayout;horizontal=1;startSize=26;fillColor=none;horizontalStack=0;resizeParent=1;resizeParentMax=0;resizeLast=0;collapsible=1;marginBottom=0;whiteSpace=wrap;html=1;" parent="1" vertex="1">
          <mxGeometry x="630" y="930" width="140" height="182" as="geometry" />
        </mxCell>
        <mxCell id="5eGrc-85FcCoErq699yo-78" value="+ Id: int" style="text;strokeColor=none;fillColor=none;align=left;verticalAlign=top;spacingLeft=4;spacingRight=4;overflow=hidden;rotatable=0;points=[[0,0.5],[1,0.5]];portConstraint=eastwest;whiteSpace=wrap;html=1;" parent="5eGrc-85FcCoErq699yo-77" vertex="1">
          <mxGeometry y="26" width="140" height="26" as="geometry" />
        </mxCell>
        <mxCell id="5eGrc-85FcCoErq699yo-79" value="+ RoleName: string" style="text;strokeColor=none;fillColor=none;align=left;verticalAlign=top;spacingLeft=4;spacingRight=4;overflow=hidden;rotatable=0;points=[[0,0.5],[1,0.5]];portConstraint=eastwest;whiteSpace=wrap;html=1;" parent="5eGrc-85FcCoErq699yo-77" vertex="1">
          <mxGeometry y="52" width="140" height="26" as="geometry" />
        </mxCell>
        <mxCell id="5eGrc-85FcCoErq699yo-80" value="+ isRead: int" style="text;strokeColor=none;fillColor=none;align=left;verticalAlign=top;spacingLeft=4;spacingRight=4;overflow=hidden;rotatable=0;points=[[0,0.5],[1,0.5]];portConstraint=eastwest;whiteSpace=wrap;html=1;" parent="5eGrc-85FcCoErq699yo-77" vertex="1">
          <mxGeometry y="78" width="140" height="26" as="geometry" />
        </mxCell>
        <mxCell id="5eGrc-85FcCoErq699yo-81" value="+ isCreate: int" style="text;strokeColor=none;fillColor=none;align=left;verticalAlign=top;spacingLeft=4;spacingRight=4;overflow=hidden;rotatable=0;points=[[0,0.5],[1,0.5]];portConstraint=eastwest;whiteSpace=wrap;html=1;" parent="5eGrc-85FcCoErq699yo-77" vertex="1">
          <mxGeometry y="104" width="140" height="26" as="geometry" />
        </mxCell>
        <mxCell id="5eGrc-85FcCoErq699yo-82" value="+ isDelete: int" style="text;strokeColor=none;fillColor=none;align=left;verticalAlign=top;spacingLeft=4;spacingRight=4;overflow=hidden;rotatable=0;points=[[0,0.5],[1,0.5]];portConstraint=eastwest;whiteSpace=wrap;html=1;" parent="5eGrc-85FcCoErq699yo-77" vertex="1">
          <mxGeometry y="130" width="140" height="26" as="geometry" />
        </mxCell>
        <mxCell id="5eGrc-85FcCoErq699yo-83" value="+ isUpdate: int" style="text;strokeColor=none;fillColor=none;align=left;verticalAlign=top;spacingLeft=4;spacingRight=4;overflow=hidden;rotatable=0;points=[[0,0.5],[1,0.5]];portConstraint=eastwest;whiteSpace=wrap;html=1;" parent="5eGrc-85FcCoErq699yo-77" vertex="1">
          <mxGeometry y="156" width="140" height="26" as="geometry" />
        </mxCell>
        <mxCell id="5eGrc-85FcCoErq699yo-84" value="Menu" style="swimlane;fontStyle=0;childLayout=stackLayout;horizontal=1;startSize=26;fillColor=none;horizontalStack=0;resizeParent=1;resizeParentMax=0;resizeLast=0;collapsible=1;marginBottom=0;whiteSpace=wrap;html=1;" parent="1" vertex="1">
          <mxGeometry x="-140" y="870" width="140" height="144" as="geometry" />
        </mxCell>
        <mxCell id="5eGrc-85FcCoErq699yo-85" value="+ Id: int&amp;nbsp;" style="text;strokeColor=none;fillColor=none;align=left;verticalAlign=top;spacingLeft=4;spacingRight=4;overflow=hidden;rotatable=0;points=[[0,0.5],[1,0.5]];portConstraint=eastwest;whiteSpace=wrap;html=1;" parent="5eGrc-85FcCoErq699yo-84" vertex="1">
          <mxGeometry y="26" width="140" height="26" as="geometry" />
        </mxCell>
        <mxCell id="5eGrc-85FcCoErq699yo-86" value="+ Name: string" style="text;strokeColor=none;fillColor=none;align=left;verticalAlign=top;spacingLeft=4;spacingRight=4;overflow=hidden;rotatable=0;points=[[0,0.5],[1,0.5]];portConstraint=eastwest;whiteSpace=wrap;html=1;" parent="5eGrc-85FcCoErq699yo-84" vertex="1">
          <mxGeometry y="52" width="140" height="26" as="geometry" />
        </mxCell>
        <mxCell id="5eGrc-85FcCoErq699yo-87" value="+ URL: string" style="text;strokeColor=none;fillColor=none;align=left;verticalAlign=top;spacingLeft=4;spacingRight=4;overflow=hidden;rotatable=0;points=[[0,0.5],[1,0.5]];portConstraint=eastwest;whiteSpace=wrap;html=1;" parent="5eGrc-85FcCoErq699yo-84" vertex="1">
          <mxGeometry y="78" width="140" height="22" as="geometry" />
        </mxCell>
        <mxCell id="5eGrc-85FcCoErq699yo-90" value="+ Description: string" style="text;strokeColor=none;fillColor=none;align=left;verticalAlign=top;spacingLeft=4;spacingRight=4;overflow=hidden;rotatable=0;points=[[0,0.5],[1,0.5]];portConstraint=eastwest;whiteSpace=wrap;html=1;" parent="5eGrc-85FcCoErq699yo-84" vertex="1">
          <mxGeometry y="100" width="140" height="22" as="geometry" />
        </mxCell>
        <mxCell id="5eGrc-85FcCoErq699yo-106" value="+ Parent: int" style="text;strokeColor=none;fillColor=none;align=left;verticalAlign=top;spacingLeft=4;spacingRight=4;overflow=hidden;rotatable=0;points=[[0,0.5],[1,0.5]];portConstraint=eastwest;whiteSpace=wrap;html=1;" parent="5eGrc-85FcCoErq699yo-84" vertex="1">
          <mxGeometry y="122" width="140" height="22" as="geometry" />
        </mxCell>
        <mxCell id="5eGrc-85FcCoErq699yo-117" value="Status" style="swimlane;fontStyle=0;childLayout=stackLayout;horizontal=1;startSize=26;fillColor=none;horizontalStack=0;resizeParent=1;resizeParentMax=0;resizeLast=0;collapsible=1;marginBottom=0;whiteSpace=wrap;html=1;" parent="1" vertex="1">
          <mxGeometry x="-100" y="40" width="140" height="100" as="geometry" />
        </mxCell>
        <mxCell id="5eGrc-85FcCoErq699yo-118" value="+ Id: int" style="text;strokeColor=none;fillColor=none;align=left;verticalAlign=top;spacingLeft=4;spacingRight=4;overflow=hidden;rotatable=0;points=[[0,0.5],[1,0.5]];portConstraint=eastwest;whiteSpace=wrap;html=1;" parent="5eGrc-85FcCoErq699yo-117" vertex="1">
          <mxGeometry y="26" width="140" height="26" as="geometry" />
        </mxCell>
        <mxCell id="5eGrc-85FcCoErq699yo-119" value="+ Name: int" style="text;strokeColor=none;fillColor=none;align=left;verticalAlign=top;spacingLeft=4;spacingRight=4;overflow=hidden;rotatable=0;points=[[0,0.5],[1,0.5]];portConstraint=eastwest;whiteSpace=wrap;html=1;" parent="5eGrc-85FcCoErq699yo-117" vertex="1">
          <mxGeometry y="52" width="140" height="26" as="geometry" />
        </mxCell>
        <mxCell id="wjSqzZgR6BkllyGaZuzp-35" value="+ Description: string" style="text;strokeColor=none;fillColor=none;align=left;verticalAlign=top;spacingLeft=4;spacingRight=4;overflow=hidden;rotatable=0;points=[[0,0.5],[1,0.5]];portConstraint=eastwest;whiteSpace=wrap;html=1;" vertex="1" parent="5eGrc-85FcCoErq699yo-117">
          <mxGeometry y="78" width="140" height="22" as="geometry" />
        </mxCell>
        <mxCell id="_7EKGx9t7rHyNCWtvQgb-5" value="StatusOrder" style="swimlane;fontStyle=0;childLayout=stackLayout;horizontal=1;startSize=26;fillColor=none;horizontalStack=0;resizeParent=1;resizeParentMax=0;resizeLast=0;collapsible=1;marginBottom=0;whiteSpace=wrap;html=1;" parent="1" vertex="1">
          <mxGeometry x="-220" y="626" width="140" height="182" as="geometry" />
        </mxCell>
        <mxCell id="_7EKGx9t7rHyNCWtvQgb-6" value="+ Id: int&amp;nbsp;" style="text;strokeColor=none;fillColor=none;align=left;verticalAlign=top;spacingLeft=4;spacingRight=4;overflow=hidden;rotatable=0;points=[[0,0.5],[1,0.5]];portConstraint=eastwest;whiteSpace=wrap;html=1;" parent="_7EKGx9t7rHyNCWtvQgb-5" vertex="1">
          <mxGeometry y="26" width="140" height="26" as="geometry" />
        </mxCell>
        <mxCell id="_7EKGx9t7rHyNCWtvQgb-7" value="+ OrderID: int" style="text;strokeColor=none;fillColor=none;align=left;verticalAlign=top;spacingLeft=4;spacingRight=4;overflow=hidden;rotatable=0;points=[[0,0.5],[1,0.5]];portConstraint=eastwest;whiteSpace=wrap;html=1;" parent="_7EKGx9t7rHyNCWtvQgb-5" vertex="1">
          <mxGeometry y="52" width="140" height="26" as="geometry" />
        </mxCell>
        <mxCell id="_7EKGx9t7rHyNCWtvQgb-13" value="+ UserConfilm: string" style="text;strokeColor=none;fillColor=none;align=left;verticalAlign=top;spacingLeft=4;spacingRight=4;overflow=hidden;rotatable=0;points=[[0,0.5],[1,0.5]];portConstraint=eastwest;whiteSpace=wrap;html=1;" parent="_7EKGx9t7rHyNCWtvQgb-5" vertex="1">
          <mxGeometry y="78" width="140" height="26" as="geometry" />
        </mxCell>
        <mxCell id="_7EKGx9t7rHyNCWtvQgb-14" value="+ OrderID: int" style="text;strokeColor=none;fillColor=none;align=left;verticalAlign=top;spacingLeft=4;spacingRight=4;overflow=hidden;rotatable=0;points=[[0,0.5],[1,0.5]];portConstraint=eastwest;whiteSpace=wrap;html=1;" parent="_7EKGx9t7rHyNCWtvQgb-5" vertex="1">
          <mxGeometry y="104" width="140" height="26" as="geometry" />
        </mxCell>
        <mxCell id="_7EKGx9t7rHyNCWtvQgb-15" value="+ OrderID: int" style="text;strokeColor=none;fillColor=none;align=left;verticalAlign=top;spacingLeft=4;spacingRight=4;overflow=hidden;rotatable=0;points=[[0,0.5],[1,0.5]];portConstraint=eastwest;whiteSpace=wrap;html=1;" parent="_7EKGx9t7rHyNCWtvQgb-5" vertex="1">
          <mxGeometry y="130" width="140" height="26" as="geometry" />
        </mxCell>
        <mxCell id="_7EKGx9t7rHyNCWtvQgb-16" value="+ OrderID: int" style="text;strokeColor=none;fillColor=none;align=left;verticalAlign=top;spacingLeft=4;spacingRight=4;overflow=hidden;rotatable=0;points=[[0,0.5],[1,0.5]];portConstraint=eastwest;whiteSpace=wrap;html=1;" parent="_7EKGx9t7rHyNCWtvQgb-5" vertex="1">
          <mxGeometry y="156" width="140" height="26" as="geometry" />
        </mxCell>
        <mxCell id="wjSqzZgR6BkllyGaZuzp-4" value="Tenant" style="swimlane;fontStyle=0;childLayout=stackLayout;horizontal=1;startSize=26;fillColor=none;horizontalStack=0;resizeParent=1;resizeParentMax=0;resizeLast=0;collapsible=1;marginBottom=0;whiteSpace=wrap;html=1;" vertex="1" parent="1">
          <mxGeometry x="110" y="40" width="140" height="100" as="geometry" />
        </mxCell>
        <mxCell id="wjSqzZgR6BkllyGaZuzp-5" value="+ Id: int&amp;nbsp;" style="text;strokeColor=none;fillColor=none;align=left;verticalAlign=top;spacingLeft=4;spacingRight=4;overflow=hidden;rotatable=0;points=[[0,0.5],[1,0.5]];portConstraint=eastwest;whiteSpace=wrap;html=1;" vertex="1" parent="wjSqzZgR6BkllyGaZuzp-4">
          <mxGeometry y="26" width="140" height="26" as="geometry" />
        </mxCell>
        <mxCell id="wjSqzZgR6BkllyGaZuzp-6" value="+ Name: string" style="text;strokeColor=none;fillColor=none;align=left;verticalAlign=top;spacingLeft=4;spacingRight=4;overflow=hidden;rotatable=0;points=[[0,0.5],[1,0.5]];portConstraint=eastwest;whiteSpace=wrap;html=1;" vertex="1" parent="wjSqzZgR6BkllyGaZuzp-4">
          <mxGeometry y="52" width="140" height="26" as="geometry" />
        </mxCell>
        <mxCell id="wjSqzZgR6BkllyGaZuzp-7" value="+ Description: string" style="text;strokeColor=none;fillColor=none;align=left;verticalAlign=top;spacingLeft=4;spacingRight=4;overflow=hidden;rotatable=0;points=[[0,0.5],[1,0.5]];portConstraint=eastwest;whiteSpace=wrap;html=1;" vertex="1" parent="wjSqzZgR6BkllyGaZuzp-4">
          <mxGeometry y="78" width="140" height="22" as="geometry" />
        </mxCell>
        <mxCell id="wjSqzZgR6BkllyGaZuzp-12" value="Image" style="swimlane;fontStyle=0;childLayout=stackLayout;horizontal=1;startSize=26;fillColor=none;horizontalStack=0;resizeParent=1;resizeParentMax=0;resizeLast=0;collapsible=1;marginBottom=0;whiteSpace=wrap;html=1;" vertex="1" parent="1">
          <mxGeometry x="490" y="39" width="140" height="166" as="geometry" />
        </mxCell>
        <mxCell id="wjSqzZgR6BkllyGaZuzp-13" value="+ Id: int&amp;nbsp;" style="text;strokeColor=none;fillColor=none;align=left;verticalAlign=top;spacingLeft=4;spacingRight=4;overflow=hidden;rotatable=0;points=[[0,0.5],[1,0.5]];portConstraint=eastwest;whiteSpace=wrap;html=1;" vertex="1" parent="wjSqzZgR6BkllyGaZuzp-12">
          <mxGeometry y="26" width="140" height="26" as="geometry" />
        </mxCell>
        <mxCell id="wjSqzZgR6BkllyGaZuzp-16" value="+ ProductID: int" style="text;strokeColor=none;fillColor=none;align=left;verticalAlign=top;spacingLeft=4;spacingRight=4;overflow=hidden;rotatable=0;points=[[0,0.5],[1,0.5]];portConstraint=eastwest;whiteSpace=wrap;html=1;" vertex="1" parent="wjSqzZgR6BkllyGaZuzp-12">
          <mxGeometry y="52" width="140" height="22" as="geometry" />
        </mxCell>
        <mxCell id="wjSqzZgR6BkllyGaZuzp-14" value="+ Name: string" style="text;strokeColor=none;fillColor=none;align=left;verticalAlign=top;spacingLeft=4;spacingRight=4;overflow=hidden;rotatable=0;points=[[0,0.5],[1,0.5]];portConstraint=eastwest;whiteSpace=wrap;html=1;" vertex="1" parent="wjSqzZgR6BkllyGaZuzp-12">
          <mxGeometry y="74" width="140" height="26" as="geometry" />
        </mxCell>
        <mxCell id="wjSqzZgR6BkllyGaZuzp-17" value="+ Type: string" style="text;strokeColor=none;fillColor=none;align=left;verticalAlign=top;spacingLeft=4;spacingRight=4;overflow=hidden;rotatable=0;points=[[0,0.5],[1,0.5]];portConstraint=eastwest;whiteSpace=wrap;html=1;" vertex="1" parent="wjSqzZgR6BkllyGaZuzp-12">
          <mxGeometry y="100" width="140" height="22" as="geometry" />
        </mxCell>
        <mxCell id="wjSqzZgR6BkllyGaZuzp-15" value="+ Url: string" style="text;strokeColor=none;fillColor=none;align=left;verticalAlign=top;spacingLeft=4;spacingRight=4;overflow=hidden;rotatable=0;points=[[0,0.5],[1,0.5]];portConstraint=eastwest;whiteSpace=wrap;html=1;" vertex="1" parent="wjSqzZgR6BkllyGaZuzp-12">
          <mxGeometry y="122" width="140" height="22" as="geometry" />
        </mxCell>
        <mxCell id="wjSqzZgR6BkllyGaZuzp-19" value="+ Order: int" style="text;strokeColor=none;fillColor=none;align=left;verticalAlign=top;spacingLeft=4;spacingRight=4;overflow=hidden;rotatable=0;points=[[0,0.5],[1,0.5]];portConstraint=eastwest;whiteSpace=wrap;html=1;" vertex="1" parent="wjSqzZgR6BkllyGaZuzp-12">
          <mxGeometry y="144" width="140" height="22" as="geometry" />
        </mxCell>
        <mxCell id="wjSqzZgR6BkllyGaZuzp-21" value="Price" style="swimlane;fontStyle=0;childLayout=stackLayout;horizontal=1;startSize=26;fillColor=none;horizontalStack=0;resizeParent=1;resizeParentMax=0;resizeLast=0;collapsible=1;marginBottom=0;whiteSpace=wrap;html=1;" vertex="1" parent="1">
          <mxGeometry x="65" y="200" width="170" height="188" as="geometry" />
        </mxCell>
        <mxCell id="wjSqzZgR6BkllyGaZuzp-22" value="+ Id: int&amp;nbsp;" style="text;strokeColor=none;fillColor=none;align=left;verticalAlign=top;spacingLeft=4;spacingRight=4;overflow=hidden;rotatable=0;points=[[0,0.5],[1,0.5]];portConstraint=eastwest;whiteSpace=wrap;html=1;" vertex="1" parent="wjSqzZgR6BkllyGaZuzp-21">
          <mxGeometry y="26" width="170" height="26" as="geometry" />
        </mxCell>
        <mxCell id="wjSqzZgR6BkllyGaZuzp-28" value="+ ProductID: int" style="text;strokeColor=none;fillColor=none;align=left;verticalAlign=top;spacingLeft=4;spacingRight=4;overflow=hidden;rotatable=0;points=[[0,0.5],[1,0.5]];portConstraint=eastwest;whiteSpace=wrap;html=1;" vertex="1" parent="wjSqzZgR6BkllyGaZuzp-21">
          <mxGeometry y="52" width="170" height="22" as="geometry" />
        </mxCell>
        <mxCell id="wjSqzZgR6BkllyGaZuzp-23" value="+ Price: string" style="text;strokeColor=none;fillColor=none;align=left;verticalAlign=top;spacingLeft=4;spacingRight=4;overflow=hidden;rotatable=0;points=[[0,0.5],[1,0.5]];portConstraint=eastwest;whiteSpace=wrap;html=1;" vertex="1" parent="wjSqzZgR6BkllyGaZuzp-21">
          <mxGeometry y="74" width="170" height="26" as="geometry" />
        </mxCell>
        <mxCell id="wjSqzZgR6BkllyGaZuzp-24" value="+ PromotPrice: string" style="text;strokeColor=none;fillColor=none;align=left;verticalAlign=top;spacingLeft=4;spacingRight=4;overflow=hidden;rotatable=0;points=[[0,0.5],[1,0.5]];portConstraint=eastwest;whiteSpace=wrap;html=1;" vertex="1" parent="wjSqzZgR6BkllyGaZuzp-21">
          <mxGeometry y="100" width="170" height="22" as="geometry" />
        </mxCell>
        <mxCell id="wjSqzZgR6BkllyGaZuzp-25" value="+ PromotPercent: string" style="text;strokeColor=none;fillColor=none;align=left;verticalAlign=top;spacingLeft=4;spacingRight=4;overflow=hidden;rotatable=0;points=[[0,0.5],[1,0.5]];portConstraint=eastwest;whiteSpace=wrap;html=1;" vertex="1" parent="wjSqzZgR6BkllyGaZuzp-21">
          <mxGeometry y="122" width="170" height="22" as="geometry" />
        </mxCell>
        <mxCell id="wjSqzZgR6BkllyGaZuzp-26" value="+ ExpirationDate: datetime" style="text;strokeColor=none;fillColor=none;align=left;verticalAlign=top;spacingLeft=4;spacingRight=4;overflow=hidden;rotatable=0;points=[[0,0.5],[1,0.5]];portConstraint=eastwest;whiteSpace=wrap;html=1;" vertex="1" parent="wjSqzZgR6BkllyGaZuzp-21">
          <mxGeometry y="144" width="170" height="22" as="geometry" />
        </mxCell>
        <mxCell id="wjSqzZgR6BkllyGaZuzp-27" value="+ EffectiveDate: datetime" style="text;strokeColor=none;fillColor=none;align=left;verticalAlign=top;spacingLeft=4;spacingRight=4;overflow=hidden;rotatable=0;points=[[0,0.5],[1,0.5]];portConstraint=eastwest;whiteSpace=wrap;html=1;" vertex="1" parent="wjSqzZgR6BkllyGaZuzp-21">
          <mxGeometry y="166" width="170" height="22" as="geometry" />
        </mxCell>
        <mxCell id="wjSqzZgR6BkllyGaZuzp-29" value="ProductStock" style="swimlane;fontStyle=0;childLayout=stackLayout;horizontal=1;startSize=26;fillColor=none;horizontalStack=0;resizeParent=1;resizeParentMax=0;resizeLast=0;collapsible=1;marginBottom=0;whiteSpace=wrap;html=1;" vertex="1" parent="1">
          <mxGeometry x="520" y="240" width="140" height="144" as="geometry" />
        </mxCell>
        <mxCell id="wjSqzZgR6BkllyGaZuzp-30" value="+ Id: int&amp;nbsp;" style="text;strokeColor=none;fillColor=none;align=left;verticalAlign=top;spacingLeft=4;spacingRight=4;overflow=hidden;rotatable=0;points=[[0,0.5],[1,0.5]];portConstraint=eastwest;whiteSpace=wrap;html=1;" vertex="1" parent="wjSqzZgR6BkllyGaZuzp-29">
          <mxGeometry y="26" width="140" height="26" as="geometry" />
        </mxCell>
        <mxCell id="wjSqzZgR6BkllyGaZuzp-33" value="+ ProductID: int" style="text;strokeColor=none;fillColor=none;align=left;verticalAlign=top;spacingLeft=4;spacingRight=4;overflow=hidden;rotatable=0;points=[[0,0.5],[1,0.5]];portConstraint=eastwest;whiteSpace=wrap;html=1;" vertex="1" parent="wjSqzZgR6BkllyGaZuzp-29">
          <mxGeometry y="52" width="140" height="22" as="geometry" />
        </mxCell>
        <mxCell id="wjSqzZgR6BkllyGaZuzp-34" value="+ StatusID: int" style="text;strokeColor=none;fillColor=none;align=left;verticalAlign=top;spacingLeft=4;spacingRight=4;overflow=hidden;rotatable=0;points=[[0,0.5],[1,0.5]];portConstraint=eastwest;whiteSpace=wrap;html=1;" vertex="1" parent="wjSqzZgR6BkllyGaZuzp-29">
          <mxGeometry y="74" width="140" height="22" as="geometry" />
        </mxCell>
        <mxCell id="wjSqzZgR6BkllyGaZuzp-31" value="+ Name: string" style="text;strokeColor=none;fillColor=none;align=left;verticalAlign=top;spacingLeft=4;spacingRight=4;overflow=hidden;rotatable=0;points=[[0,0.5],[1,0.5]];portConstraint=eastwest;whiteSpace=wrap;html=1;" vertex="1" parent="wjSqzZgR6BkllyGaZuzp-29">
          <mxGeometry y="96" width="140" height="26" as="geometry" />
        </mxCell>
        <mxCell id="wjSqzZgR6BkllyGaZuzp-32" value="+ Description: string" style="text;strokeColor=none;fillColor=none;align=left;verticalAlign=top;spacingLeft=4;spacingRight=4;overflow=hidden;rotatable=0;points=[[0,0.5],[1,0.5]];portConstraint=eastwest;whiteSpace=wrap;html=1;" vertex="1" parent="wjSqzZgR6BkllyGaZuzp-29">
          <mxGeometry y="122" width="140" height="22" as="geometry" />
        </mxCell>
      </root>
    </mxGraphModel>
  </diagram>
</mxfile>
